<svg width="329" height="88" viewBox="0 0 329 88" fill="none" xmlns="http://www.w3.org/2000/svg">
<path d="M22.0493 52.6248V82.5209H0V19.5096L22.0493 8.05298V37.5191V52.6248Z" fill="url(#paint0_linear_111_1421)"/>
<path d="M74.4678 37.5506V8.05298L96.5171 19.5218V86.9014L74.4678 76.8661V52.6725V37.5506Z" fill="url(#paint1_linear_111_1421)"/>
<path d="M48.1753 28.2747C50.0396 22.9547 53.6721 18.6051 58.3429 16.0998C66.0296 12.1553 74.4348 7.75781 74.4348 7.75781V27.3759L65.1755 32.13C56.5059 36.587 48.3651 59.9267 48.3651 59.9267L48.1753 28.2747Z" fill="#56CCF2"/>
<path d="M47.9821 28.2747C46.0144 22.9657 42.3769 18.6373 37.7504 16.0998C30.1867 12.1553 21.916 7.75781 21.916 7.75781V27.3759L31.0271 32.13C39.558 36.587 48.1755 59.9267 48.1755 59.9267L47.9821 28.2747Z" fill="url(#paint2_linear_111_1421)"/>
<path d="M219.283 26.098C220.328 25.4907 221.234 24.6694 221.939 23.6887C222.645 22.708 223.133 21.5905 223.373 20.4107C223.427 19.7603 223.449 19.108 223.437 18.4561C223.439 18.1847 222.193 19.0631 222.054 18.7493C221.916 18.4355 223.289 17.7912 223.286 15.8172L223.272 15.6799C223.172 15.4789 221.933 16.4185 221.662 16.6124L221.622 16.6743L221.662 16.6124C221.952 16.3903 223.236 15.3199 223.081 14.3223C222.964 13.5491 222.83 12.7891 222.67 12.0444C222.629 11.8015 221.131 12.9665 221.131 12.9665C221.131 12.9665 222.625 11.7347 222.425 10.9888C222.302 10.4442 222.166 9.90735 222.024 9.39099L221.974 9.19847C221.887 8.94149 221.33 9.58411 221.285 9.55508C221.24 9.52605 221.881 8.96202 221.74 8.42151C221.598 7.88099 221.355 7.55583 221.2 7.07127C221.023 7.27571 220.864 7.49461 220.724 7.72564C220.96 7.36602 221.064 6.93617 221.015 6.51099C220.924 6.25964 220.756 6.01508 220.69 5.78751C220.623 5.55994 220.369 5.99704 220.369 5.99704C220.466 5.80174 220.526 5.59017 220.545 5.37344C220.442 5.09067 220.218 4.71317 220.126 4.46182C220.037 4.51334 219.962 4.58607 219.908 4.67345C219.976 4.55269 220.026 4.42292 220.056 4.28821C219.668 3.69424 219.456 3.00193 219.445 2.2904L219.459 2.14706L219.46 2.08384L219.459 2.14706C219.352 2.42121 219.171 2.66082 218.936 2.83891C218.701 3.01701 218.421 3.1265 218.128 3.15507L217.944 3.30109C217.763 3.43222 217.74 3.8824 217.74 3.8824C217.74 3.8824 217.729 3.48293 217.54 3.62532L217.064 4.02318C216.964 4.08334 216.879 4.16536 216.815 4.26299C216.751 4.36063 216.71 4.47131 216.695 4.58663C216.695 4.58663 216.589 4.40614 216.452 4.51797L215.826 5.05946C215.551 5.37422 215.398 5.77673 215.396 6.19265L215.374 6.22646L215.396 6.19265C215.399 6.01789 215.428 5.41148 215.324 5.49676C214.939 5.84114 214.537 6.19878 214.129 6.57697C213.722 6.95515 213.924 7.24565 213.901 7.23113C213.879 7.21662 213.778 6.91895 213.577 7.07825L212.765 7.84387C212.336 8.39292 212.059 9.04347 211.962 9.73017C211.962 9.73017 211.565 9.0171 211.399 9.19817L211.117 9.48142C210.894 9.71577 210.737 10.0048 210.662 10.3187C210.587 10.6325 210.598 10.9599 210.692 11.267C210.692 11.267 210.324 10.4363 210.124 10.5231C209.726 10.9476 209.334 11.3758 208.957 11.8055C207.876 13.4564 208.804 15.2745 208.735 15.454C208.665 15.6336 207.622 13.8694 207.356 13.762C206.906 14.3528 206.479 14.9432 206.107 15.5364C204.2 18.6093 205.434 19.9114 205.364 20.0909C205.295 20.2705 204.302 19.6616 204.214 20.15C203.378 26.1428 208.479 31.9545 208.476 31.9601C208.476 31.9601 211.514 31.6779 214.434 31.2712C216.165 31.074 217.811 30.4025 219.19 29.3313C220.568 28.2602 221.625 26.8313 222.243 25.2036C222.299 24.9834 221.339 25.7421 219.283 26.098Z" fill="#99C513"/>
<path style="mix-blend-mode:color-burn" d="M219.283 26.098C220.328 25.4907 221.234 24.6694 221.939 23.6887C222.645 22.708 223.133 21.5905 223.373 20.4107C223.427 19.7603 223.449 19.108 223.437 18.4561C223.439 18.1847 222.193 19.0631 222.054 18.7493C221.916 18.4355 223.289 17.7912 223.286 15.8172L223.272 15.6799C223.172 15.4789 221.933 16.4185 221.662 16.6124L221.622 16.6743L221.662 16.6124C221.952 16.3903 223.236 15.3199 223.081 14.3223C222.964 13.5491 222.83 12.7891 222.67 12.0444C222.629 11.8015 221.131 12.9665 221.131 12.9665C221.131 12.9665 222.625 11.7347 222.425 10.9888C222.302 10.4442 222.166 9.90735 222.024 9.39099L221.974 9.19847C221.887 8.94149 221.33 9.58411 221.285 9.55508C221.24 9.52605 221.881 8.96202 221.74 8.42151C221.598 7.88099 221.355 7.55583 221.2 7.07127C221.023 7.27571 220.864 7.49461 220.724 7.72564C220.96 7.36602 221.064 6.93617 221.015 6.51099C220.924 6.25964 220.756 6.01508 220.69 5.78751C220.623 5.55994 220.369 5.99704 220.369 5.99704C220.466 5.80174 220.526 5.59017 220.545 5.37344C220.442 5.09067 220.218 4.71317 220.126 4.46182C220.037 4.51334 219.962 4.58607 219.908 4.67345C219.976 4.55269 220.026 4.42292 220.056 4.28821C219.668 3.69424 219.456 3.00193 219.445 2.2904L219.459 2.14706L219.46 2.08384L219.459 2.14706C219.352 2.42121 219.171 2.66082 218.936 2.83891C218.701 3.01701 218.421 3.1265 218.128 3.15507L217.944 3.30109C217.763 3.43222 217.74 3.8824 217.74 3.8824C217.74 3.8824 217.729 3.48293 217.54 3.62532L217.064 4.02318C216.964 4.08334 216.879 4.16536 216.815 4.26299C216.751 4.36063 216.71 4.47131 216.695 4.58663C216.695 4.58663 216.589 4.40614 216.452 4.51797L215.826 5.05946C215.551 5.37422 215.398 5.77673 215.396 6.19265L215.374 6.22646L215.396 6.19265C215.399 6.01789 215.428 5.41148 215.324 5.49676C214.939 5.84114 214.537 6.19878 214.129 6.57697C213.722 6.95515 213.924 7.24565 213.901 7.23113C213.879 7.21662 213.778 6.91895 213.577 7.07825L212.765 7.84387C212.336 8.39292 212.059 9.04347 211.962 9.73017C211.962 9.73017 211.565 9.0171 211.399 9.19817L211.117 9.48142C210.894 9.71577 210.737 10.0048 210.662 10.3187C210.587 10.6325 210.598 10.9599 210.692 11.267C210.692 11.267 210.324 10.4363 210.124 10.5231C209.726 10.9476 209.334 11.3758 208.957 11.8055C207.876 13.4564 208.804 15.2745 208.735 15.454C208.665 15.6336 207.622 13.8694 207.356 13.762C206.906 14.3528 206.479 14.9432 206.107 15.5364C204.2 18.6093 205.434 19.9114 205.364 20.0909C205.295 20.2705 204.302 19.6616 204.214 20.15C203.378 26.1428 208.479 31.9545 208.476 31.9601C208.476 31.9601 211.514 31.6779 214.434 31.2712C216.165 31.074 217.811 30.4025 219.19 29.3313C220.568 28.2602 221.625 26.8313 222.243 25.2036C222.299 24.9834 221.339 25.7421 219.283 26.098Z" fill="url(#paint3_radial_111_1421)"/>
<path d="M206.546 35.2023C206.546 35.2023 207.605 33.2413 209.099 30.2382L210.294 27.8029C210.696 26.9323 211.138 26.0238 211.577 25.0726C212.016 24.1215 212.467 23.1385 212.904 22.1297L213.569 20.6118L214.22 19.068C214.658 18.0444 215.059 17.0046 215.447 15.9724C215.835 14.9403 216.208 13.9307 216.572 12.9472C216.756 12.4573 216.922 11.9714 217.076 11.4932L217.537 10.0918C217.7 9.63571 217.816 9.18963 217.943 8.75082L218.305 7.50159L218.474 6.91342L218.602 6.3389L218.854 5.28288C218.926 4.95274 219.008 4.64475 219.065 4.36131L219.196 3.56372L219.444 2.04863L219.243 3.57785L219.127 4.37707L218.927 5.3059L218.696 6.36717L218.577 6.93968L218.419 7.53511L218.08 8.79885C217.962 9.23566 217.847 9.691 217.69 10.1507L217.255 11.561C217.107 12.0428 216.953 12.536 216.773 13.0295C216.43 14.0182 216.1 15.0476 215.701 16.0725C215.302 17.0974 214.929 18.1553 214.508 19.1899L213.889 20.7461L213.246 22.2786C212.826 23.2982 212.386 24.2885 211.964 25.2505C211.542 26.2126 211.133 27.1187 210.726 28.0099L209.576 30.4741C208.137 33.5043 207.092 35.4911 207.092 35.4911L206.546 35.2023Z" fill="#A1E000"/>
<path d="M209.21 30.3978C209.21 30.3978 209.848 30.0086 210.846 29.5226C211.344 29.2749 211.933 28.998 212.572 28.7295C213.211 28.461 213.901 28.2011 214.604 27.9576C214.956 27.848 215.305 27.7291 215.627 27.6162C215.949 27.5033 216.319 27.4138 216.66 27.3452C217 27.2767 217.322 27.1879 217.63 27.1701C217.937 27.1522 218.235 27.0639 218.512 27.0428C218.79 27.0216 219.041 26.9916 219.267 26.9769C219.46 26.9601 219.653 26.9539 219.847 26.9585L220.355 26.9504L219.848 26.9678C219.69 26.9777 219.494 26.9715 219.271 26.9955L218.52 27.0798C218.244 27.1102 217.952 27.178 217.63 27.2184C217.308 27.2588 216.999 27.364 216.677 27.4528C216.355 27.5415 216.002 27.6419 215.68 27.7548C215.358 27.8676 214.985 27.9869 214.65 28.1075C213.958 28.3582 213.27 28.6274 212.64 28.918C212.011 29.2086 211.431 29.4836 210.939 29.7348C209.96 30.241 209.342 30.6355 209.342 30.6355L209.21 30.3978Z" fill="#A1E000"/>
<path d="M209.431 29.8031C209.431 29.8031 209.289 29.1901 209.009 28.2875C208.865 27.8344 208.709 27.2922 208.481 26.7605C208.384 26.4814 208.257 26.199 208.143 25.909C208.029 25.6189 207.893 25.3385 207.764 25.0469C207.635 24.7553 207.486 24.4825 207.337 24.2098C207.188 23.937 207.053 23.6659 206.889 23.4157C206.725 23.1655 206.595 22.9129 206.433 22.6962C206.271 22.4794 206.133 22.2622 205.983 22.0769L205.577 21.574C205.458 21.4253 205.332 21.312 205.238 21.2113C205.047 21.0154 204.93 20.9002 204.93 20.9002C204.93 20.9002 205.065 20.9873 205.242 21.2057C205.354 21.2782 205.471 21.4176 205.593 21.5607L206.016 22.0503C206.167 22.2357 206.314 22.4508 206.479 22.662C206.645 22.8731 206.79 23.1273 206.954 23.3775C207.118 23.6277 207.265 23.8912 207.424 24.1619C207.583 24.4327 207.724 24.7167 207.87 24.995C208.016 25.2734 208.15 25.5687 208.273 25.8567C208.397 26.1447 208.527 26.4215 208.634 26.6986C208.865 27.2489 209.046 27.7665 209.226 28.2357C209.531 29.138 209.685 29.7582 209.685 29.7582L209.431 29.8031Z" fill="#A1E000"/>
<path d="M211.215 25.9682C211.215 25.9682 211.137 25.2928 210.945 24.2791C210.845 23.7733 210.727 23.1841 210.568 22.5602C210.489 22.2529 210.406 21.927 210.313 21.5939C210.219 21.2608 210.118 20.939 210.018 20.6023C209.919 20.2656 209.792 19.959 209.681 19.6392L209.3 18.7196C209.162 18.4299 209.026 18.1495 208.893 17.8877L208.489 17.1617L208.078 16.5678C207.978 16.4185 207.869 16.2756 207.751 16.1399L207.446 15.7748C207.446 15.7748 207.561 15.905 207.755 16.1343C207.878 16.266 207.992 16.4064 208.095 16.5546C208.214 16.7274 208.351 16.9204 208.513 17.1372C208.675 17.354 208.785 17.6013 208.936 17.8591L209.361 18.687C209.49 18.9786 209.627 19.2832 209.761 19.6026C209.896 19.9221 210.01 20.2362 210.122 20.5653C210.235 20.8944 210.355 21.2122 210.428 21.5642C210.501 21.9162 210.625 22.2043 210.694 22.5377C210.868 23.1632 211.005 23.7484 211.115 24.2523C211.322 25.2676 211.416 25.9539 211.416 25.9539L211.215 25.9682Z" fill="#A1E000"/>
<path d="M212.937 22.1024C212.937 22.1024 213.454 21.9232 214.246 21.6895C215.039 21.4558 216.096 21.1603 217.149 20.9188C217.689 20.8025 218.227 20.701 218.735 20.6205L219.473 20.5196L220.13 20.4554L220.693 20.426C220.861 20.4141 221.008 20.421 221.129 20.4191L221.5 20.4263L221.122 20.4304C221.007 20.4359 220.859 20.429 220.697 20.4445C220.535 20.4601 220.343 20.4724 220.133 20.4888L219.479 20.5716L218.745 20.691C218.244 20.7844 217.708 20.8951 217.176 21.0243C216.112 21.2828 215.064 21.6004 214.285 21.8506C213.506 22.1009 212.993 22.2985 212.993 22.2985L212.937 22.1024Z" fill="#A1E000"/>
<path d="M214.304 19.0737C214.304 19.0737 214.146 18.619 213.859 17.9841C213.514 17.1814 213.128 16.3971 212.703 15.6343C212.468 15.2105 212.217 14.8 211.971 14.4321C211.835 14.2484 211.72 14.0699 211.598 13.9027C211.475 13.7355 211.347 13.5888 211.24 13.4474C211.133 13.3059 211.011 13.187 210.915 13.077C210.819 12.967 210.723 12.8812 210.65 12.8098C210.498 12.6635 210.417 12.5793 210.417 12.5793L210.658 12.7986C210.747 12.8566 210.854 12.9256 210.932 13.0638C211.009 13.2019 211.14 13.2947 211.264 13.4228L211.635 13.8705C211.766 14.0357 211.891 14.2122 212.03 14.3903C212.286 14.7561 212.55 15.159 212.797 15.5752C213.247 16.3339 213.656 17.1167 214.02 17.9202C214.321 18.5716 214.489 19.0244 214.489 19.0244L214.304 19.0737Z" fill="#A1E000"/>
<path d="M214.066 19.4492C214.066 19.4492 214.533 19.2132 215.229 18.8936C216.096 18.5159 216.981 18.183 217.881 17.8963C218.126 17.8144 218.375 17.751 218.619 17.6839C218.863 17.6169 219.105 17.5647 219.345 17.5033C219.585 17.4419 219.808 17.418 220.028 17.3755L220.643 17.2914C220.838 17.2734 221.017 17.2688 221.17 17.2552C221.305 17.2468 221.44 17.2484 221.575 17.26C221.804 17.2638 221.927 17.2711 221.927 17.2711L221.577 17.2692C221.441 17.2616 221.305 17.265 221.17 17.2794C221.017 17.2929 220.839 17.2976 220.65 17.3285L220.034 17.4274L219.355 17.5738C219.13 17.6369 218.884 17.6946 218.642 17.7709C218.4 17.8473 218.157 17.9143 217.913 18.0055C217.024 18.3142 216.152 18.6686 215.3 19.0672C214.588 19.4093 214.137 19.6228 214.137 19.6228L214.066 19.4492Z" fill="#A1E000"/>
<path d="M214.8 17.8542C215.744 16.8424 216.791 15.9307 217.923 15.1339C218.694 14.5747 219.556 14.1546 220.47 13.8929C220.642 13.8443 220.817 13.8099 220.993 13.7899C221.15 13.7707 221.28 13.7668 221.396 13.7612C221.483 13.7617 221.57 13.7672 221.657 13.7775L221.75 13.7817L221.657 13.7775C221.599 13.7803 221.513 13.7649 221.398 13.7705C221.262 13.7741 221.126 13.7856 220.992 13.8048C220.818 13.8276 220.647 13.8645 220.48 13.9151C219.576 14.1939 218.727 14.6275 217.97 15.1964C217.206 15.7446 216.486 16.3514 215.815 17.0111C215.271 17.5494 214.935 17.9413 214.935 17.9413L214.8 17.8542Z" fill="#A1E000"/>
<path d="M215.421 16.3889C215.382 16.0147 215.311 15.6447 215.21 15.2826C215.172 15.1215 215.12 14.9438 215.057 14.7589C214.994 14.5741 214.926 14.3856 214.856 14.1878C214.785 13.99 214.694 13.787 214.6 13.5896C214.507 13.3838 214.404 13.1832 214.29 12.9885L214.121 12.6956C214.063 12.6018 214.001 12.5135 213.937 12.416C213.82 12.233 213.692 12.0569 213.555 11.8886C213.43 11.7274 213.295 11.5738 213.152 11.4284L212.962 11.2177L212.765 11.0423C212.625 10.9516 212.525 10.8231 212.42 10.7392C212.315 10.6554 212.201 10.5977 212.122 10.5469C211.954 10.438 211.858 10.3763 211.858 10.3763C211.858 10.3763 211.954 10.438 212.122 10.5469C212.201 10.5977 212.302 10.663 212.42 10.7392C212.538 10.8154 212.645 10.9327 212.775 11.0403L212.972 11.2157C213.045 11.2628 213.101 11.3474 213.165 11.4208C213.313 11.5633 213.451 11.7144 213.581 11.8733C213.721 12.0408 213.852 12.2162 213.972 12.3988C214.04 12.4906 214.098 12.5845 214.166 12.6764L214.343 12.9672C214.462 13.1643 214.559 13.3709 214.663 13.5663C214.767 13.7617 214.845 13.9723 214.928 14.1625C215.011 14.3526 215.088 14.554 215.141 14.7409C215.195 14.9278 215.261 15.107 215.305 15.2718C215.412 15.637 215.491 16.0097 215.543 16.387L215.421 16.3889Z" fill="#A1E000"/>
<path d="M216.118 14.4338C216.118 14.4338 216.339 14.0958 216.759 13.6616C216.961 13.4391 217.218 13.1562 217.471 12.9273C217.725 12.6984 218.044 12.4071 218.357 12.1605C218.518 12.0483 218.676 11.9176 218.839 11.8146C219.003 11.7117 219.162 11.5902 219.324 11.5022C219.476 11.4085 219.634 11.3229 219.795 11.2456C219.955 11.1725 220.094 11.0941 220.234 11.0398L220.617 10.8944C220.716 10.8603 220.817 10.832 220.92 10.8097L221.18 10.7293L220.92 10.8097C220.838 10.837 220.736 10.859 220.619 10.9036L220.241 11.0527C220.102 11.107 219.964 11.1946 219.808 11.2622C219.652 11.3297 219.504 11.4343 219.339 11.5279C219.173 11.6216 219.027 11.7355 218.86 11.8441C218.693 11.9526 218.545 12.0814 218.385 12.2029C218.082 12.4464 217.792 12.706 217.517 12.9805C217.271 13.2135 217.039 13.4592 216.819 13.7164C216.599 13.962 216.391 14.2184 216.196 14.4846L216.118 14.4338Z" fill="#A1E000"/>
<path d="M216.639 12.9905C216.617 12.6841 216.563 12.381 216.479 12.0859C216.403 11.7757 216.302 11.4722 216.178 11.178C216.115 11.0173 216.041 10.8494 215.958 10.6834C215.875 10.5174 215.784 10.3627 215.696 10.1931C215.607 10.0235 215.494 9.87844 215.394 9.72574C215.294 9.57304 215.177 9.43361 215.07 9.29218C214.963 9.15075 214.841 9.03186 214.737 8.90896C214.634 8.78605 214.521 8.68933 214.422 8.58495C214.335 8.49255 214.242 8.40585 214.144 8.32538C214.049 8.26369 213.964 8.20927 213.919 8.13192C213.874 8.05456 213.706 7.99402 213.706 7.99402C213.706 7.99402 213.784 8.04483 213.919 8.13192C213.992 8.19856 214.068 8.26125 214.148 8.31975C214.243 8.38144 214.328 8.48419 214.431 8.58294C214.534 8.68168 214.647 8.77842 214.75 8.90132C214.854 9.02422 214.976 9.14311 215.092 9.28253C215.209 9.42196 215.311 9.55976 215.42 9.71046C215.529 9.86115 215.635 10.0175 215.731 10.1758C215.827 10.3341 215.929 10.4961 216.008 10.6677C216.093 10.8279 216.17 10.9923 216.238 11.1604C216.364 11.4558 216.469 11.7597 216.554 12.0699C216.647 12.3717 216.712 12.6818 216.747 12.9962L216.639 12.9905Z" fill="#A1E000"/>
<path d="M217.184 11.2419C217.638 10.5757 218.157 9.95494 218.732 9.38848C218.945 9.18286 219.172 8.99174 219.411 8.81643C219.518 8.73489 219.631 8.66046 219.748 8.59362C219.852 8.52956 219.961 8.47377 220.073 8.42678C220.165 8.38095 220.263 8.34693 220.363 8.32555C220.438 8.2973 220.517 8.28039 220.596 8.2754L220.801 8.25544L220.592 8.28104C220.516 8.28537 220.441 8.30162 220.369 8.32918C220.268 8.3546 220.169 8.39041 220.075 8.43605C219.966 8.4859 219.861 8.54411 219.762 8.61015C219.642 8.67779 219.528 8.75415 219.42 8.83858C219.188 9.01975 218.968 9.2144 218.759 9.42152C218.377 9.80356 218.023 10.213 217.701 10.6464C217.43 11.0001 217.292 11.2718 217.292 11.2718L217.184 11.2419Z" fill="#A1E000"/>
<path d="M217.61 9.96948C217.61 9.90263 217.602 9.83605 217.588 9.77094C217.561 9.59902 217.519 9.42989 217.463 9.26548C217.417 9.16397 217.376 9.05682 217.332 8.9404C217.279 8.8207 217.219 8.70434 217.152 8.59194C217.081 8.48155 217.015 8.35062 216.937 8.2366L216.676 7.89128C216.59 7.77452 216.497 7.66359 216.397 7.55924L216.093 7.26665L215.817 6.99219C215.71 6.92324 215.609 6.85793 215.519 6.79987C215.173 6.53582 214.936 6.35925 214.936 6.35925C214.936 6.35925 215.184 6.51892 215.527 6.78859C215.617 6.84666 215.718 6.91197 215.825 6.98092C215.931 7.04987 216.012 7.15826 216.11 7.25337L216.414 7.54597C216.518 7.64609 216.612 7.75533 216.696 7.87238C216.788 7.98802 216.88 8.10366 216.971 8.21005C217.061 8.31643 217.114 8.455 217.188 8.57465C217.259 8.68562 217.322 8.80137 217.377 8.92111C217.42 9.03752 217.468 9.1483 217.513 9.24981C217.572 9.41665 217.618 9.58812 217.649 9.76254C217.664 9.82894 217.674 9.89659 217.677 9.96471L217.61 9.96948Z" fill="#A1E000"/>
<path d="M218.2 8.04242L218.532 7.79182C218.736 7.65106 218.996 7.44993 219.279 7.27259L219.684 6.99668L219.881 6.89133L220.055 6.79564L220.417 6.59662L220.061 6.79928L219.888 6.90423C219.82 6.93722 219.755 6.97554 219.693 7.01883L219.295 7.29836C219.022 7.48297 218.759 7.68973 218.566 7.83776L218.24 8.09198L218.2 8.04242Z" fill="#A1E000"/>
<path d="M218.491 6.99627C218.491 6.99627 218.447 6.8557 218.369 6.64503L218.218 6.29055C218.153 6.16888 218.091 6.03232 218.015 5.9034C217.94 5.77448 217.868 5.63993 217.781 5.52792C217.695 5.4159 217.633 5.3035 217.552 5.21927C217.409 5.0468 217.307 4.93317 217.307 4.93317L217.555 5.21363C217.651 5.27532 217.708 5.40825 217.794 5.52027C217.881 5.63229 217.953 5.76685 218.032 5.89013C218.111 6.01342 218.176 6.15924 218.249 6.2789C218.323 6.39855 218.359 6.52623 218.405 6.62774C218.45 6.72926 218.538 6.98624 218.538 6.98624L218.491 6.99627Z" fill="#A1E000"/>
<path d="M218.849 5.35132L219.506 4.37255L218.877 5.36946L218.849 5.35132Z" fill="#A1E000"/>
<path d="M210.74 26.9129C210.74 26.9129 211.281 26.5252 212.124 26.0193L212.796 25.6518C213.045 25.5159 213.307 25.3724 213.585 25.2397C213.864 25.1071 214.144 24.9595 214.438 24.8285C214.732 24.6975 215.037 24.5737 215.339 24.4407L216.262 24.1064C216.572 24.0104 216.868 23.9128 217.168 23.8337C217.467 23.7546 217.754 23.6832 218.031 23.6379C218.309 23.5927 218.571 23.5457 218.817 23.5121L219.488 23.4644C219.658 23.4558 219.829 23.4562 219.999 23.4656L220.454 23.4789L220.001 23.4749C219.83 23.4694 219.659 23.474 219.488 23.4885L218.825 23.5492C218.579 23.5828 218.318 23.639 218.046 23.6879C217.775 23.7368 217.483 23.8287 217.178 23.9284C216.873 24.028 216.581 24.1199 216.276 24.2196C215.971 24.3192 215.671 24.4466 215.372 24.574C215.073 24.7014 214.77 24.8344 214.484 24.9783C214.198 25.1223 213.91 25.2569 213.644 25.4061C213.379 25.5553 213.111 25.6952 212.868 25.8347C212.625 25.9742 212.402 26.119 212.194 26.2413C211.359 26.76 210.842 27.1474 210.842 27.1474L210.74 26.9129Z" fill="#A1E000"/>
<path d="M210.69 23.5454C210.617 23.2694 210.527 22.9978 210.423 22.7318C210.185 22.1292 209.888 21.5512 209.539 21.006C209.349 20.7167 209.139 20.4417 208.91 20.1832C208.806 20.0605 208.696 19.9437 208.579 19.8334C208.456 19.7536 208.371 19.6267 208.262 19.5484C208.084 19.4143 207.896 19.2931 207.7 19.1856C207.565 19.0985 207.492 19.0513 207.492 19.0513L207.7 19.1856C207.896 19.293 208.084 19.4143 208.262 19.5484C208.375 19.621 208.474 19.7254 208.596 19.8201C208.718 19.9149 208.831 20.0357 208.956 20.149C209.201 20.4037 209.431 20.6726 209.644 20.9541C210.033 21.4872 210.37 22.0563 210.65 22.6539C210.879 23.1465 211.001 23.4978 211.001 23.4978L210.69 23.5454Z" fill="#A1E000"/>
<path d="M213.988 24.9785C213.988 24.9785 214.133 24.9762 214.353 24.9821C214.623 24.9841 214.893 25.0053 215.159 25.0456C215.301 25.0591 215.442 25.0805 215.581 25.1095C215.715 25.1483 215.839 25.1798 215.943 25.2153C216.154 25.2715 216.295 25.3139 216.295 25.3139L215.934 25.2415C215.828 25.2209 215.706 25.1986 215.574 25.1691C215.441 25.1396 215.294 25.1568 215.151 25.1442C214.884 25.1281 214.616 25.1292 214.349 25.1476C214.136 25.1546 213.989 25.1718 213.989 25.1718L213.988 24.9785Z" fill="#A1E000"/>
<path d="M209.009 20.2635C208.889 20.1741 208.764 20.0928 208.633 20.0203C208.342 19.8592 208.039 19.7222 207.726 19.6109C207.546 19.5672 207.376 19.4974 207.21 19.4703C207.044 19.4432 206.882 19.4104 206.744 19.4015L206.291 19.3975L206.745 19.3866C206.902 19.3908 207.058 19.4057 207.212 19.4312C207.391 19.4579 207.568 19.4974 207.742 19.5493C208.066 19.6453 208.381 19.7684 208.684 19.9173C208.819 19.9915 208.949 20.0751 209.072 20.1677L209.009 20.2635Z" fill="#A1E000"/>
<path d="M216.978 23.8062C217.117 23.6912 217.262 23.5841 217.412 23.4853C217.567 23.3801 217.727 23.2826 217.891 23.1933C218.069 23.092 218.272 23.0144 218.467 22.924L218.778 22.828C218.874 22.7903 218.975 22.7637 219.077 22.7489L219.366 22.7109C219.452 22.6928 219.541 22.6851 219.629 22.6882L220.155 22.7394L219.625 22.718C219.541 22.7236 219.457 22.7368 219.376 22.7572L219.094 22.8081C218.993 22.8317 218.894 22.8643 218.799 22.9058L218.505 23.0126C218.323 23.1196 218.126 23.2008 217.965 23.313C217.809 23.4077 217.658 23.5112 217.514 23.6231C217.374 23.727 217.24 23.8383 217.112 23.9566L216.978 23.8062Z" fill="#A1E000"/>
<path d="M214.626 27.8997C215.241 27.8122 215.862 27.7738 216.483 27.7849C216.715 27.798 216.953 27.7998 217.168 27.8261C217.382 27.8525 217.588 27.8808 217.756 27.9172L218.316 28.0626C218.316 28.0626 218.088 28.0198 217.752 27.947C217.577 27.9219 217.375 27.9121 217.163 27.895C216.95 27.8779 216.713 27.8853 216.484 27.8815C215.873 27.9076 215.264 27.9806 214.662 28.0999L214.626 27.8997Z" fill="#A1E000"/>
<path d="M209.162 28.5791C209.162 28.5791 209.065 28.3966 208.894 28.1335C208.684 27.8077 208.452 27.497 208.199 27.204C208.051 27.052 207.919 26.8868 207.771 26.7591C207.644 26.6309 207.51 26.5095 207.369 26.3955L206.942 26.0714C206.942 26.0714 207.122 26.1875 207.391 26.3617C207.526 26.4488 207.66 26.5749 207.817 26.7007C207.975 26.8265 208.119 26.984 208.277 27.134C208.551 27.4135 208.804 27.7133 209.033 28.031C209.143 28.1741 209.246 28.3233 209.34 28.4778L209.162 28.5791Z" fill="#A1E000"/>
<path d="M215.579 21.3012C215.579 21.3012 215.729 21.1334 215.975 20.8916C216.092 20.7745 216.244 20.6401 216.399 20.5001C216.555 20.3601 216.744 20.2177 216.92 20.083C217.096 19.9482 217.306 19.8353 217.48 19.7154C217.655 19.5955 217.858 19.5422 218.008 19.471C218.159 19.3999 218.31 19.4012 218.406 19.3755L218.555 19.3434L218.408 19.3848C218.277 19.4175 218.147 19.4567 218.02 19.5024C217.871 19.5828 217.693 19.66 217.516 19.7706C217.34 19.8812 217.153 20.0087 216.984 20.1563C216.815 20.304 216.641 20.448 216.493 20.6009C216.345 20.7538 216.212 20.8841 216.097 21.0105C215.872 21.2575 215.733 21.4326 215.733 21.4326L215.579 21.3012Z" fill="#A1E000"/>
<path d="M213.268 16.7129C213.382 16.0252 213.418 15.3275 213.374 14.6331C213.354 14.3775 213.317 14.1235 213.264 13.8728C213.213 13.6584 213.148 13.4477 213.07 13.242C213.01 13.0948 212.936 12.9534 212.85 12.8198L212.75 12.6671C212.75 12.6671 212.801 12.6998 212.854 12.8142C212.949 12.9428 213.03 13.081 213.096 13.2267C213.188 13.4316 213.266 13.6428 213.329 13.8587C213.392 14.1099 213.439 14.365 213.469 14.6223C213.551 15.3263 213.55 16.0382 213.464 16.7432L213.268 16.7129Z" fill="#A1E000"/>
<path d="M210.153 21.1786C210.153 21.1786 210.333 20.9025 210.516 20.4275C210.76 19.865 210.963 19.2859 211.123 18.6949C211.204 18.3785 211.267 18.0579 211.312 17.7347C211.35 17.4514 211.368 17.166 211.367 16.8806C211.36 16.6789 211.339 16.478 211.305 16.2794L211.262 16.0514L211.314 16.2773C211.361 16.4759 211.392 16.6781 211.406 16.8819C211.422 17.1691 211.42 17.4571 211.401 17.7444C211.37 18.0609 211.322 18.3906 211.255 18.7244C211.053 19.6075 210.758 20.4676 210.375 21.2903L210.153 21.1786Z" fill="#A1E000"/>
<path d="M315.567 26.098C316.613 25.4907 317.518 24.6694 318.223 23.6887C318.929 22.708 319.418 21.5905 319.657 20.4107C319.712 19.7603 319.733 19.108 319.722 18.4561C319.723 18.1847 318.477 19.0631 318.339 18.7493C318.2 18.4355 319.573 17.7912 319.57 15.8172L319.556 15.6799C319.456 15.4789 318.217 16.4185 317.947 16.6124L317.906 16.6743L317.947 16.6124C318.236 16.3903 319.52 15.3199 319.366 14.3223C319.248 13.5491 319.114 12.7891 318.954 12.0444C318.913 11.8015 317.415 12.9665 317.415 12.9665C317.415 12.9665 318.909 11.7347 318.71 10.9888C318.586 10.4442 318.45 9.90735 318.308 9.39099L318.259 9.19847C318.171 8.94149 317.614 9.58411 317.57 9.55508C317.525 9.52605 318.166 8.96202 318.024 8.42151C317.882 7.88099 317.639 7.55583 317.485 7.07127C317.308 7.27571 317.148 7.49461 317.008 7.72564C317.245 7.36602 317.348 6.93617 317.3 6.51099C317.208 6.25964 317.041 6.01508 316.974 5.78751C316.907 5.55994 316.653 5.99704 316.653 5.99704C316.75 5.80174 316.81 5.59017 316.829 5.37344C316.726 5.09067 316.502 4.71317 316.411 4.46182C316.321 4.51334 316.246 4.58607 316.192 4.67345C316.26 4.55269 316.31 4.42292 316.34 4.28821C315.952 3.69424 315.741 3.00193 315.729 2.2904L315.743 2.14706L315.745 2.08384L315.743 2.14706C315.636 2.42121 315.455 2.66082 315.22 2.83891C314.985 3.01701 314.705 3.1265 314.412 3.15507L314.228 3.30109C314.047 3.43222 314.024 3.8824 314.024 3.8824C314.024 3.8824 314.014 3.48293 313.824 3.62532L313.348 4.02318C313.248 4.08334 313.163 4.16536 313.099 4.26299C313.035 4.36063 312.994 4.47131 312.979 4.58663C312.979 4.58663 312.874 4.40614 312.737 4.51797L312.11 5.05946C311.835 5.37422 311.682 5.77673 311.68 6.19265L311.658 6.22646L311.68 6.19265C311.683 6.01789 311.712 5.41148 311.608 5.49676C311.223 5.84114 310.821 6.19878 310.414 6.57697C310.006 6.95515 310.208 7.24565 310.185 7.23113C310.163 7.21662 310.062 6.91895 309.862 7.07825L309.049 7.84387C308.62 8.39292 308.343 9.04347 308.246 9.73017C308.246 9.73017 307.849 9.0171 307.683 9.19817L307.401 9.48142C307.178 9.71577 307.021 10.0048 306.946 10.3187C306.871 10.6325 306.882 10.9599 306.976 11.267C306.976 11.267 306.609 10.4363 306.408 10.5231C306.01 10.9476 305.618 11.3758 305.241 11.8055C304.16 13.4564 305.089 15.2745 305.019 15.454C304.95 15.6336 303.906 13.8694 303.64 13.762C303.19 14.3528 302.763 14.9432 302.391 15.5364C300.484 18.6093 301.718 19.9114 301.648 20.0909C301.579 20.2705 300.586 19.6616 300.499 20.15C299.662 26.1428 304.763 31.9545 304.76 31.9601C304.76 31.9601 307.798 31.6779 310.718 31.2712C312.449 31.074 314.095 30.4025 315.474 29.3313C316.852 28.2602 317.909 26.8313 318.527 25.2036C318.583 24.9834 317.623 25.7421 315.567 26.098Z" fill="#56CCF2"/>
<path style="mix-blend-mode:color-burn" d="M315.567 26.098C316.613 25.4907 317.518 24.6694 318.223 23.6887C318.929 22.708 319.418 21.5905 319.657 20.4107C319.712 19.7603 319.733 19.108 319.722 18.4561C319.723 18.1847 318.477 19.0631 318.339 18.7493C318.2 18.4355 319.573 17.7912 319.57 15.8172L319.556 15.6799C319.456 15.4789 318.217 16.4185 317.947 16.6124L317.906 16.6743L317.947 16.6124C318.236 16.3903 319.52 15.3199 319.366 14.3223C319.248 13.5491 319.114 12.7891 318.954 12.0444C318.913 11.8015 317.415 12.9665 317.415 12.9665C317.415 12.9665 318.909 11.7347 318.71 10.9888C318.586 10.4442 318.45 9.90735 318.308 9.39099L318.259 9.19847C318.171 8.94149 317.614 9.58411 317.57 9.55508C317.525 9.52605 318.166 8.96202 318.024 8.42151C317.882 7.88099 317.639 7.55583 317.485 7.07127C317.308 7.27571 317.148 7.49461 317.008 7.72564C317.245 7.36602 317.348 6.93617 317.3 6.51099C317.208 6.25964 317.041 6.01508 316.974 5.78751C316.907 5.55994 316.653 5.99704 316.653 5.99704C316.75 5.80174 316.81 5.59017 316.829 5.37344C316.726 5.09067 316.502 4.71317 316.411 4.46182C316.321 4.51334 316.246 4.58607 316.192 4.67345C316.26 4.55269 316.31 4.42292 316.34 4.28821C315.952 3.69424 315.741 3.00193 315.729 2.2904L315.743 2.14706L315.745 2.08384L315.743 2.14706C315.636 2.42121 315.455 2.66082 315.22 2.83891C314.985 3.01701 314.705 3.1265 314.412 3.15507L314.228 3.30109C314.047 3.43222 314.024 3.8824 314.024 3.8824C314.024 3.8824 314.014 3.48293 313.824 3.62532L313.348 4.02318C313.248 4.08334 313.163 4.16536 313.099 4.26299C313.035 4.36063 312.994 4.47131 312.979 4.58663C312.979 4.58663 312.874 4.40614 312.737 4.51797L312.11 5.05946C311.835 5.37422 311.682 5.77673 311.68 6.19265L311.658 6.22646L311.68 6.19265C311.683 6.01789 311.712 5.41148 311.608 5.49676C311.223 5.84114 310.821 6.19878 310.414 6.57697C310.006 6.95515 310.208 7.24565 310.185 7.23113C310.163 7.21662 310.062 6.91895 309.862 7.07825L309.049 7.84387C308.62 8.39292 308.343 9.04347 308.246 9.73017C308.246 9.73017 307.849 9.0171 307.683 9.19817L307.401 9.48142C307.178 9.71577 307.021 10.0048 306.946 10.3187C306.871 10.6325 306.882 10.9599 306.976 11.267C306.976 11.267 306.609 10.4363 306.408 10.5231C306.01 10.9476 305.618 11.3758 305.241 11.8055C304.16 13.4564 305.089 15.2745 305.019 15.454C304.95 15.6336 303.906 13.8694 303.64 13.762C303.19 14.3528 302.763 14.9432 302.391 15.5364C300.484 18.6093 301.718 19.9114 301.648 20.0909C301.579 20.2705 300.586 19.6616 300.499 20.15C299.662 26.1428 304.763 31.9545 304.76 31.9601C304.76 31.9601 307.798 31.6779 310.718 31.2712C312.449 31.074 314.095 30.4025 315.474 29.3313C316.852 28.2602 317.909 26.8313 318.527 25.2036C318.583 24.9834 317.623 25.7421 315.567 26.098Z" fill="url(#paint4_radial_111_1421)"/>
<path d="M302.829 35.2023C302.829 35.2023 303.889 33.2413 305.383 30.2382L306.577 27.8029C306.979 26.9323 307.422 26.0238 307.86 25.0726C308.299 24.1215 308.75 23.1385 309.187 22.1297L309.853 20.6118L310.503 19.068C310.941 18.0444 311.342 17.0046 311.73 15.9724C312.118 14.9403 312.491 13.9307 312.855 12.9472C313.039 12.4573 313.206 11.9714 313.359 11.4932L313.82 10.0918C313.983 9.63571 314.099 9.18963 314.226 8.75082L314.588 7.50159L314.757 6.91342L314.886 6.3389L315.137 5.28288C315.209 4.95274 315.291 4.64475 315.349 4.36131L315.479 3.56372L315.727 2.04863L315.526 3.57785L315.41 4.37707L315.21 5.3059L314.979 6.36717L314.86 6.93968L314.702 7.53511L314.363 8.79885C314.245 9.23566 314.131 9.691 313.974 10.1507L313.538 11.561C313.391 12.0428 313.236 12.536 313.057 13.0295C312.713 14.0182 312.383 15.0476 311.984 16.0725C311.585 17.0974 311.213 18.1553 310.791 19.1899L310.172 20.7461L309.529 22.2786C309.11 23.2982 308.669 24.2885 308.247 25.2505C307.826 26.2126 307.416 27.1187 307.009 28.0099L305.86 30.4741C304.42 33.5043 303.375 35.4911 303.375 35.4911L302.829 35.2023Z" fill="#349EC0"/>
<path d="M305.494 30.3978C305.494 30.3978 306.132 30.0086 307.13 29.5226C307.628 29.2749 308.217 28.998 308.856 28.7295C309.496 28.461 310.185 28.2011 310.888 27.9576C311.24 27.848 311.589 27.7291 311.911 27.6162C312.233 27.5033 312.603 27.4138 312.944 27.3452C313.284 27.2767 313.606 27.1879 313.914 27.1701C314.221 27.1522 314.519 27.0639 314.797 27.0428C315.074 27.0216 315.326 26.9916 315.551 26.9769C315.744 26.9601 315.937 26.9539 316.131 26.9585L316.64 26.9504L316.133 26.9678C315.974 26.9777 315.778 26.9715 315.555 26.9955L314.804 27.0798C314.529 27.1102 314.236 27.178 313.914 27.2184C313.592 27.2588 313.283 27.364 312.961 27.4528C312.639 27.5415 312.286 27.6419 311.964 27.7548C311.643 27.8676 311.269 27.9869 310.934 28.1075C310.242 28.3582 309.554 28.6274 308.925 28.918C308.295 29.2086 307.715 29.4836 307.223 29.7348C306.244 30.241 305.626 30.6355 305.626 30.6355L305.494 30.3978Z" fill="#349EC0"/>
<path d="M305.715 29.8034C305.715 29.8034 305.572 29.1904 305.292 28.2877C305.149 27.8346 304.992 27.2925 304.764 26.7607C304.667 26.4816 304.54 26.1992 304.426 25.9092C304.312 25.6192 304.176 25.3388 304.047 25.0471C303.918 24.7555 303.769 24.4828 303.62 24.21C303.471 23.9373 303.336 23.6662 303.172 23.416C303.008 23.1658 302.878 22.9132 302.716 22.6964C302.554 22.4796 302.417 22.2625 302.266 22.0771L301.86 21.5742C301.741 21.4255 301.616 21.3123 301.522 21.2115C301.33 21.0157 301.214 20.9004 301.214 20.9004C301.214 20.9004 301.348 20.9875 301.525 21.2059C301.638 21.2785 301.754 21.4179 301.876 21.5609L302.299 22.0506C302.45 22.2359 302.597 22.4511 302.762 22.6622C302.928 22.8734 303.073 23.1276 303.237 23.3778C303.401 23.628 303.549 23.8914 303.707 24.1622C303.866 24.4329 304.008 24.7169 304.153 24.9953C304.299 25.2737 304.433 25.5689 304.556 25.857C304.68 26.145 304.81 26.4217 304.917 26.6989C305.148 27.2491 305.329 27.7667 305.509 28.236C305.814 29.1382 305.968 29.7585 305.968 29.7585L305.715 29.8034Z" fill="#349EC0"/>
<path d="M307.498 25.9689C307.498 25.9689 307.42 25.2936 307.228 24.2799C307.128 23.774 307.01 23.1848 306.851 22.5609C306.772 22.2536 306.69 21.9278 306.596 21.5947C306.502 21.2616 306.401 20.9397 306.302 20.603C306.202 20.2663 306.075 19.9598 305.965 19.6399L305.583 18.7203C305.445 18.4307 305.309 18.1503 305.176 17.8884L304.772 17.1625L304.362 16.5686C304.261 16.4192 304.152 16.2763 304.034 16.1406L303.73 15.7756C303.73 15.7756 303.844 15.9057 304.038 16.135C304.161 16.2667 304.275 16.4072 304.378 16.5553C304.497 16.7281 304.634 16.9211 304.796 17.1379C304.958 17.3547 305.068 17.602 305.219 17.8599L305.645 18.6877C305.773 18.9794 305.91 19.2839 306.045 19.6034C306.179 19.9228 306.293 20.237 306.406 20.5661C306.518 20.8951 306.638 21.213 306.711 21.565C306.785 21.917 306.908 22.205 306.977 22.5385C307.151 23.164 307.288 23.7492 307.398 24.253C307.605 25.2683 307.699 25.9546 307.699 25.9546L307.498 25.9689Z" fill="#349EC0"/>
<path d="M309.221 22.1029C309.221 22.1029 309.738 21.9237 310.531 21.69C311.323 21.4563 312.38 21.1608 313.433 20.9193C313.973 20.8029 314.511 20.7015 315.02 20.621L315.757 20.5201L316.415 20.4558L316.977 20.4265C317.145 20.4146 317.292 20.4215 317.414 20.4196L317.785 20.4268L317.406 20.4309C317.291 20.4364 317.143 20.4295 316.981 20.445C316.819 20.4606 316.627 20.4729 316.417 20.4893L315.763 20.5721L315.029 20.6915C314.529 20.7849 313.992 20.8956 313.46 21.0248C312.396 21.2832 311.348 21.6009 310.569 21.8511C309.79 22.1013 309.277 22.299 309.277 22.299L309.221 22.1029Z" fill="#349EC0"/>
<path d="M310.588 19.0737C310.588 19.0737 310.43 18.619 310.142 17.9841C309.797 17.1814 309.411 16.3971 308.986 15.6343C308.752 15.2105 308.501 14.8 308.254 14.4321C308.118 14.2484 308.003 14.0699 307.881 13.9027C307.758 13.7355 307.631 13.5888 307.523 13.4474C307.416 13.3059 307.294 13.187 307.198 13.077C307.102 12.967 307.007 12.8812 306.933 12.8098C306.781 12.6635 306.701 12.5793 306.701 12.5793L306.941 12.7986C307.031 12.8566 307.137 12.9256 307.215 13.0638C307.292 13.2019 307.423 13.2947 307.547 13.4228L307.918 13.8705C308.05 14.0357 308.174 14.2122 308.313 14.3903C308.569 14.7561 308.833 15.159 309.08 15.5752C309.531 16.3339 309.939 17.1167 310.303 17.9202C310.605 18.5716 310.772 19.0244 310.772 19.0244L310.588 19.0737Z" fill="#349EC0"/>
<path d="M310.35 19.4492C310.35 19.4492 310.816 19.2132 311.513 18.8936C312.379 18.5159 313.264 18.183 314.164 17.8963C314.409 17.8144 314.659 17.751 314.902 17.6839C315.146 17.6169 315.388 17.5647 315.628 17.5033C315.868 17.4419 316.092 17.418 316.311 17.3755L316.926 17.2914C317.122 17.2734 317.3 17.2688 317.453 17.2552C317.588 17.2468 317.723 17.2484 317.858 17.26C318.087 17.2638 318.21 17.2711 318.21 17.2711L317.86 17.2692C317.724 17.2616 317.588 17.265 317.453 17.2794C317.301 17.2929 317.122 17.2976 316.934 17.3285L316.317 17.4274L315.638 17.5738C315.413 17.6369 315.167 17.6946 314.925 17.7709C314.684 17.8473 314.44 17.9143 314.196 18.0055C313.308 18.3142 312.435 18.6686 311.583 19.0672C310.871 19.4093 310.42 19.6228 310.42 19.6228L310.35 19.4492Z" fill="#349EC0"/>
<path d="M311.082 17.854C312.026 16.8422 313.073 15.9304 314.206 15.1337C314.976 14.5744 315.838 14.1543 316.752 13.8927C316.924 13.8441 317.099 13.8096 317.276 13.7896C317.432 13.7704 317.562 13.7665 317.678 13.761C317.765 13.7615 317.853 13.7669 317.939 13.7773L318.032 13.7814L317.939 13.7773C317.881 13.7801 317.795 13.7647 317.68 13.7702C317.544 13.7739 317.408 13.7854 317.274 13.8045C317.101 13.8273 316.929 13.8642 316.762 13.9148C315.858 14.1937 315.009 14.6273 314.253 15.1961C313.488 15.7444 312.768 16.3512 312.098 17.0108C311.553 17.5492 311.217 17.9411 311.217 17.9411L311.082 17.854Z" fill="#349EC0"/>
<path d="M311.706 16.3891C311.666 16.0149 311.596 15.6449 311.495 15.2828C311.456 15.1217 311.405 14.9441 311.342 14.7592C311.279 14.5743 311.211 14.3858 311.14 14.188C311.07 13.9903 310.979 13.7872 310.884 13.5898C310.792 13.384 310.688 13.1834 310.574 12.9888L310.406 12.6959C310.348 12.602 310.286 12.5138 310.221 12.4163C310.104 12.2332 309.977 12.0571 309.839 11.8889C309.714 11.7277 309.58 11.574 309.437 11.4287L309.247 11.2179L309.05 11.0426C308.91 10.9518 308.81 10.8233 308.705 10.7395C308.6 10.6556 308.486 10.5979 308.407 10.5471C308.239 10.4383 308.143 10.3766 308.143 10.3766C308.143 10.3766 308.239 10.4383 308.407 10.5471C308.486 10.5979 308.587 10.6633 308.705 10.7395C308.823 10.8157 308.93 10.9329 309.059 11.0406L309.256 11.2159C309.329 11.2631 309.386 11.3477 309.45 11.421C309.597 11.5635 309.736 11.7146 309.865 11.8736C310.006 12.041 310.136 12.2164 310.257 12.399C310.325 12.4909 310.383 12.5847 310.451 12.6766L310.628 12.9675C310.747 13.1645 310.844 13.3711 310.947 13.5665C311.051 13.7619 311.129 13.9726 311.213 14.1627C311.296 14.3529 311.372 14.5543 311.426 14.7411C311.479 14.928 311.546 15.1073 311.59 15.272C311.696 15.6372 311.776 16.01 311.827 16.3872L311.706 16.3891Z" fill="#349EC0"/>
<path d="M312.402 14.4338C312.402 14.4338 312.623 14.0958 313.043 13.6616C313.245 13.4391 313.502 13.1562 313.756 12.9273C314.009 12.6984 314.328 12.4071 314.641 12.1605C314.803 12.0483 314.96 11.9176 315.123 11.8146C315.287 11.7117 315.446 11.5902 315.608 11.5022C315.76 11.4085 315.918 11.3229 316.079 11.2456C316.239 11.1725 316.378 11.0941 316.518 11.0398L316.901 10.8944C317 10.8603 317.102 10.832 317.204 10.8097L317.465 10.7293L317.204 10.8097C317.122 10.837 317.02 10.859 316.903 10.9036L316.525 11.0527C316.386 11.107 316.249 11.1946 316.093 11.2622C315.936 11.3297 315.788 11.4343 315.623 11.5279C315.458 11.6216 315.311 11.7355 315.144 11.8441C314.977 11.9526 314.829 12.0814 314.669 12.2029C314.366 12.4464 314.076 12.706 313.801 12.9805C313.556 13.2135 313.323 13.4592 313.103 13.7164C312.883 13.962 312.675 14.2184 312.481 14.4846L312.402 14.4338Z" fill="#349EC0"/>
<path d="M312.923 12.9907C312.901 12.6843 312.847 12.3812 312.763 12.0862C312.687 11.776 312.586 11.4724 312.462 11.1783C312.4 11.0176 312.326 10.8496 312.242 10.6836C312.159 10.5176 312.069 10.3629 311.98 10.1933C311.891 10.0237 311.778 9.87868 311.678 9.72598C311.578 9.57329 311.462 9.43386 311.354 9.29243C311.247 9.151 311.125 9.03211 311.022 8.9092C310.918 8.7863 310.806 8.68957 310.706 8.58519C310.619 8.49279 310.526 8.40609 310.428 8.32563C310.333 8.26394 310.249 8.20951 310.203 8.13216C310.158 8.05481 309.99 7.99427 309.99 7.99427C309.99 7.99427 310.068 8.04507 310.203 8.13216C310.276 8.1988 310.352 8.2615 310.432 8.32C310.528 8.38169 310.612 8.48444 310.715 8.58318C310.819 8.68192 310.931 8.77866 311.035 8.90156C311.138 9.02447 311.26 9.14335 311.377 9.28278C311.493 9.4222 311.595 9.56001 311.704 9.7107C311.813 9.86139 311.919 10.0177 312.015 10.1761C312.111 10.3344 312.213 10.4963 312.293 10.668C312.377 10.8281 312.454 10.9926 312.522 11.1606C312.648 11.4561 312.753 11.76 312.838 12.0701C312.931 12.3719 312.996 12.6821 313.031 12.9965L312.923 12.9907Z" fill="#349EC0"/>
<path d="M313.467 11.2415C313.922 10.5752 314.44 9.95445 315.016 9.38799C315.229 9.18238 315.455 8.99125 315.694 8.81594C315.801 8.7344 315.914 8.65997 316.032 8.59313C316.135 8.52907 316.244 8.47328 316.357 8.42629C316.449 8.38046 316.546 8.34644 316.647 8.32506C316.721 8.29681 316.8 8.2799 316.879 8.27492L317.084 8.25495L316.876 8.28055C316.799 8.28489 316.724 8.30113 316.652 8.32869C316.551 8.35411 316.453 8.38992 316.359 8.43556C316.25 8.48541 316.145 8.54362 316.045 8.60966C315.925 8.67731 315.811 8.75366 315.703 8.8381C315.472 9.01926 315.251 9.21391 315.042 9.42103C314.66 9.80307 314.307 10.2125 313.984 10.6459C313.713 10.9996 313.575 11.2713 313.575 11.2713L313.467 11.2415Z" fill="#349EC0"/>
<path d="M313.892 9.96948C313.893 9.90263 313.885 9.83605 313.87 9.77094C313.844 9.59902 313.802 9.42989 313.746 9.26548C313.7 9.16397 313.658 9.05682 313.615 8.9404C313.562 8.8207 313.502 8.70434 313.435 8.59194C313.363 8.48155 313.297 8.35062 313.22 8.2366L312.958 7.89128C312.873 7.77452 312.78 7.66359 312.68 7.55924L312.376 7.26665L312.1 6.99219C311.993 6.92324 311.892 6.85793 311.802 6.79987C311.455 6.53582 311.219 6.35925 311.219 6.35925C311.219 6.35925 311.466 6.51892 311.81 6.78859C311.899 6.84666 312.001 6.91197 312.107 6.98092C312.214 7.04987 312.295 7.15826 312.393 7.25337L312.697 7.54597C312.8 7.64609 312.895 7.75533 312.979 7.87238C313.071 7.98802 313.163 8.10366 313.253 8.21005C313.344 8.31643 313.397 8.455 313.47 8.57465C313.541 8.68562 313.604 8.80137 313.659 8.92111C313.703 9.03752 313.75 9.1483 313.796 9.24981C313.855 9.41665 313.901 9.58812 313.932 9.76254C313.947 9.82894 313.956 9.89659 313.96 9.96471L313.892 9.96948Z" fill="#349EC0"/>
<path d="M314.482 8.04194L314.814 7.79134C315.018 7.65057 315.278 7.44945 315.562 7.2721L315.966 6.9962L316.163 6.89085L316.337 6.79516L316.7 6.59613L316.343 6.79879L316.171 6.90375C316.103 6.93673 316.037 6.97505 315.976 7.01834L315.577 7.29787C315.304 7.48248 315.041 7.68924 314.848 7.83727L314.522 8.0915L314.482 8.04194Z" fill="#349EC0"/>
<path d="M314.775 6.997C314.775 6.997 314.731 6.85643 314.653 6.64577L314.502 6.29128C314.438 6.16962 314.375 6.03306 314.3 5.90414C314.224 5.77522 314.152 5.64067 314.066 5.52865C313.979 5.41663 313.917 5.30423 313.836 5.22C313.693 5.04754 313.592 4.9339 313.592 4.9339L313.84 5.21436C313.935 5.27605 313.992 5.40899 314.079 5.521C314.165 5.63302 314.237 5.76758 314.316 5.89087C314.395 6.01415 314.46 6.15997 314.533 6.27963C314.607 6.39929 314.643 6.52696 314.689 6.62848C314.734 6.72999 314.822 6.98697 314.822 6.98697L314.775 6.997Z" fill="#349EC0"/>
<path d="M315.132 5.35107L315.789 4.3723L315.16 5.36922L315.132 5.35107Z" fill="#349EC0"/>
<path d="M307.024 26.9124C307.024 26.9124 307.566 26.5247 308.409 26.0188L309.081 25.6513C309.33 25.5154 309.591 25.3719 309.87 25.2392C310.149 25.1066 310.429 24.959 310.723 24.828C311.016 24.697 311.321 24.5732 311.624 24.4402L312.546 24.1059C312.857 24.0099 313.153 23.9123 313.452 23.8332C313.752 23.7542 314.038 23.6827 314.316 23.6374C314.593 23.5922 314.856 23.5453 315.102 23.5116L315.772 23.4639C315.943 23.4553 316.113 23.4557 316.283 23.4651L316.738 23.4784L316.285 23.4744C316.114 23.4689 315.943 23.4735 315.773 23.488L315.109 23.5487C314.864 23.5823 314.603 23.6385 314.331 23.6874C314.059 23.7363 313.767 23.8283 313.462 23.9279C313.157 24.0275 312.865 24.1195 312.56 24.2191C312.255 24.3187 311.956 24.4461 311.657 24.5735C311.358 24.7009 311.055 24.8339 310.769 24.9778C310.483 25.1218 310.195 25.2564 309.929 25.4056C309.664 25.5548 309.396 25.6947 309.153 25.8342C308.91 25.9737 308.687 26.1185 308.479 26.2408C307.644 26.7595 307.127 27.1469 307.127 27.1469L307.024 26.9124Z" fill="#349EC0"/>
<path d="M306.974 23.5454C306.9 23.2694 306.811 22.9978 306.707 22.7318C306.468 22.1292 306.172 21.5512 305.822 21.006C305.633 20.7167 305.423 20.4417 305.193 20.1832C305.09 20.0605 304.979 19.9437 304.863 19.8334C304.739 19.7536 304.654 19.6267 304.545 19.5484C304.367 19.4143 304.179 19.2931 303.984 19.1856C303.849 19.0985 303.776 19.0513 303.776 19.0513L303.984 19.1856C304.179 19.293 304.367 19.4143 304.545 19.5484C304.658 19.621 304.757 19.7254 304.879 19.8201C305.001 19.9149 305.114 20.0357 305.24 20.149C305.484 20.4037 305.714 20.6726 305.928 20.9541C306.317 21.4872 306.653 22.0563 306.934 22.6539C307.163 23.1465 307.284 23.4978 307.284 23.4978L306.974 23.5454Z" fill="#349EC0"/>
<path d="M310.272 24.9785C310.272 24.9785 310.417 24.9762 310.638 24.9821C310.907 24.9841 311.177 25.0053 311.443 25.0456C311.585 25.0591 311.726 25.0805 311.865 25.1095C312 25.1483 312.123 25.1798 312.228 25.2153C312.439 25.2715 312.579 25.3139 312.579 25.3139L312.218 25.2415C312.112 25.2209 311.991 25.1986 311.858 25.1691C311.726 25.1396 311.578 25.1568 311.435 25.1442C311.168 25.1281 310.9 25.1292 310.633 25.1476C310.421 25.1546 310.273 25.1718 310.273 25.1718L310.272 24.9785Z" fill="#349EC0"/>
<path d="M305.292 20.2637C305.173 20.1743 305.047 20.0931 304.916 20.0206C304.626 19.8594 304.322 19.7225 304.009 19.6111C303.83 19.5675 303.659 19.4977 303.493 19.4706C303.327 19.4434 303.165 19.4107 303.027 19.4017L302.574 19.3977L303.029 19.3868C303.185 19.3911 303.341 19.406 303.495 19.4315C303.674 19.4582 303.852 19.4976 304.025 19.5495C304.349 19.6456 304.664 19.7687 304.967 19.9175C305.103 19.9917 305.232 20.0754 305.355 20.1679L305.292 20.2637Z" fill="#349EC0"/>
<path d="M313.261 23.807C313.4 23.692 313.545 23.5848 313.695 23.486C313.85 23.3808 314.01 23.2834 314.174 23.194C314.352 23.0927 314.555 23.0152 314.75 22.9247L315.061 22.8287C315.157 22.791 315.258 22.7645 315.36 22.7497L315.649 22.7117C315.736 22.6935 315.824 22.6859 315.912 22.6889L316.438 22.7401L315.908 22.7187C315.824 22.7243 315.741 22.7375 315.659 22.758L315.378 22.8089C315.276 22.8324 315.177 22.8651 315.082 22.9065L314.788 23.0133C314.606 23.1203 314.409 23.2015 314.248 23.3137C314.092 23.4084 313.941 23.512 313.797 23.6238C313.657 23.7277 313.523 23.839 313.395 23.9573L313.261 23.807Z" fill="#349EC0"/>
<path d="M310.91 27.8995C311.525 27.8119 312.147 27.7735 312.768 27.7846C312.999 27.7977 313.237 27.7995 313.452 27.8259C313.667 27.8522 313.872 27.8806 314.04 27.917L314.6 28.0624C314.6 28.0624 314.373 28.0195 314.036 27.9468C313.861 27.9217 313.66 27.9118 313.447 27.8947C313.234 27.8776 312.998 27.8851 312.768 27.8813C312.157 27.9073 311.548 27.9804 310.947 28.0996L310.91 27.8995Z" fill="#349EC0"/>
<path d="M305.446 28.5794C305.446 28.5794 305.349 28.3969 305.178 28.1338C304.969 27.8079 304.737 27.4973 304.483 27.2042C304.335 27.0523 304.203 26.8871 304.055 26.7593C303.928 26.6311 303.794 26.5098 303.653 26.3958L303.226 26.0716C303.226 26.0716 303.406 26.1878 303.676 26.3619C303.81 26.449 303.944 26.5752 304.101 26.701C304.259 26.8267 304.403 26.9843 304.561 27.1342C304.835 27.4137 305.088 27.7135 305.317 28.0312C305.428 28.1743 305.53 28.3235 305.624 28.478L305.446 28.5794Z" fill="#349EC0"/>
<path d="M311.864 21.3007C311.864 21.3007 312.014 21.1329 312.26 20.8911C312.376 20.774 312.528 20.6397 312.684 20.4996C312.84 20.3596 313.029 20.2172 313.205 20.0825C313.381 19.9477 313.591 19.8348 313.765 19.7149C313.94 19.5951 314.142 19.5417 314.293 19.4705C314.443 19.3994 314.594 19.4007 314.691 19.375L314.84 19.3429L314.693 19.3843C314.562 19.417 314.432 19.4563 314.304 19.5019C314.156 19.5823 313.977 19.6595 313.801 19.7701C313.625 19.8807 313.437 20.0082 313.269 20.1558C313.1 20.3035 312.926 20.4475 312.778 20.6004C312.63 20.7533 312.497 20.8836 312.382 21.01C312.156 21.2571 312.018 21.4321 312.018 21.4321L311.864 21.3007Z" fill="#349EC0"/>
<path d="M309.551 16.7131C309.665 16.0254 309.701 15.3277 309.657 14.6334C309.637 14.3777 309.6 14.1238 309.548 13.873C309.496 13.6587 309.431 13.448 309.353 13.2423C309.293 13.095 309.22 12.9537 309.134 12.8201L309.034 12.6674C309.034 12.6674 309.084 12.7 309.137 12.8144C309.232 12.943 309.313 13.0813 309.379 13.227C309.471 13.4319 309.55 13.643 309.613 13.859C309.675 14.1102 309.722 14.3652 309.752 14.6226C309.835 15.3265 309.833 16.0385 309.747 16.7435L309.551 16.7131Z" fill="#349EC0"/>
<path d="M306.436 21.1784C306.436 21.1784 306.617 20.9023 306.8 20.4273C307.043 19.8647 307.246 19.2857 307.406 18.6946C307.487 18.3783 307.55 18.0577 307.595 17.7344C307.633 17.4512 307.651 17.1658 307.65 16.8804C307.643 16.6787 307.622 16.4778 307.588 16.2791L307.545 16.0512L307.597 16.2771C307.644 16.4757 307.675 16.6778 307.689 16.8816C307.705 17.1688 307.703 17.4568 307.684 17.7441C307.653 18.0606 307.605 18.3904 307.539 18.7242C307.337 19.6073 307.042 20.4674 306.658 21.2901L306.436 21.1784Z" fill="#349EC0"/>
<path d="M147.576 59.8082L125.895 65.5788C124.652 63.6536 124.042 61.3928 124.149 59.1079L131.463 57.1612C131.058 55.993 130.204 55.031 129.087 54.4843C127.97 53.9375 126.679 53.8503 125.496 54.2414C124.638 54.4721 123.847 54.904 123.192 55.5008C122.537 56.0977 122.036 56.8421 121.732 57.6708C121.029 59.6732 121.002 61.8466 121.653 63.8643C122.107 66.0013 123.242 67.9361 124.891 69.3831C125.529 69.9772 126.313 70.3946 127.165 70.5938C128.017 70.793 128.908 70.7668 129.747 70.518C130.528 70.2622 131.247 69.849 131.859 69.3042C132.471 68.7593 132.962 68.0947 133.302 67.3524L144.084 74.8861C141.258 78.6948 137.208 81.4363 132.602 82.6582C129.984 83.417 127.24 83.6451 124.533 83.3288C121.826 83.0126 119.212 82.1586 116.847 80.8177C114.469 79.5155 112.39 77.7385 110.741 75.5991C109.092 73.4597 107.908 71.0042 107.265 68.3875C106.529 65.7888 106.329 63.069 106.676 60.3907C107.024 57.7124 107.913 55.1304 109.289 52.7986C110.656 50.4223 112.497 48.3468 114.701 46.6991C116.904 45.0514 119.422 43.8661 122.102 43.2157C127.298 41.8328 132.833 42.5516 137.489 45.2143C142.145 47.877 145.541 52.2655 146.93 57.414C147.195 57.6207 147.375 58.544 147.576 59.8082Z" fill="#56CCF2"/>
<path d="M178.536 28.782H193.342V61.3398C193.596 66.635 191.916 71.8437 188.609 76.011C186.768 78.2046 184.459 79.9663 181.849 81.1693C179.15 82.4592 176.191 83.1236 173.195 83.1121C170.442 83.1816 167.703 82.6948 165.146 81.6812C162.589 80.6677 160.267 79.1486 158.321 77.2168C156.35 75.3687 154.791 73.1327 153.743 70.6524C152.695 68.172 152.182 65.502 152.237 62.8136C152.23 60.148 152.759 57.5077 153.792 55.0465C154.825 52.5852 156.342 50.3523 158.254 48.4775C160.085 46.5488 162.295 45.0126 164.749 43.9641C167.202 42.9155 169.847 42.3768 172.519 42.3813H176.508V58.5263C175.486 57.6624 174.199 57.1665 172.857 57.1193C172.113 57.1226 171.378 57.2724 170.693 57.5599C170.008 57.8474 169.388 58.267 168.868 58.7941C167.814 59.87 167.231 61.3144 167.246 62.8136C167.249 63.5506 167.4 64.2795 167.69 64.958C167.98 65.6366 168.404 66.2512 168.936 66.7661C169.482 67.2913 170.127 67.7039 170.835 67.9799C171.543 68.2559 172.299 68.3899 173.06 68.3741C176.846 68.3741 178.739 65.7613 178.739 60.536L178.536 28.782Z" fill="#AAD037"/>
<path d="M215.653 43.1855H200.847V82.3087H215.653V43.1855Z" fill="#56CCF2"/>
<path d="M259.665 82.3088H244.791V60.2684C244.791 57.9907 243.912 56.852 242.019 56.852C240.126 56.852 239.247 57.9907 239.247 60.2684V82.3088H224.441V60.5365C224.375 58.1554 224.79 55.7852 225.66 53.565C226.531 51.3447 227.841 49.3191 229.512 47.6071C231.236 45.8795 233.303 44.5238 235.581 43.6256C237.86 42.7274 240.301 42.3061 242.752 42.3879C245.203 42.4697 247.61 43.0529 249.823 44.1009C252.035 45.149 254.005 46.6393 255.608 48.478C258.536 52.3187 259.975 57.073 259.665 61.8764V82.3088Z" fill="#AAD037"/>
<path d="M289.615 51.8944V67.2355H282.854V82.3086H268.048V48.8128C267.967 45.5142 268.637 42.24 270.009 39.2331C271.661 35.8516 274.238 32.9968 277.445 30.993C280.545 28.927 284.189 27.8088 287.924 27.7773H289.479V43.7884H288.736C287.922 43.7382 287.109 43.8753 286.358 44.1892C285.607 44.503 284.94 44.9849 284.409 45.5971C283.298 47.1345 282.749 49.0015 282.854 50.8895V52.2295L289.615 51.8944Z" fill="#56CCF2"/>
<path d="M310.911 43.1855H296.105V82.3087H310.911V43.1855Z" fill="#AAD037"/>
<defs>
<linearGradient id="paint0_linear_111_1421" x1="11.0247" y1="82.5209" x2="11.0247" y2="8.05298" gradientUnits="userSpaceOnUse">
<stop stop-color="#AAD037"/>
<stop offset="1" stop-color="#9CCB3D"/>
</linearGradient>
<linearGradient id="paint1_linear_111_1421" x1="85.4924" y1="82.6006" x2="85.4924" y2="8.05298" gradientUnits="userSpaceOnUse">
<stop stop-color="#AAD037"/>
<stop offset="1" stop-color="#9CCB3D"/>
</linearGradient>
<linearGradient id="paint2_linear_111_1421" x1="55.9988" y1="46.1956" x2="14.9243" y2="29.1736" gradientUnits="userSpaceOnUse">
<stop stop-color="#0657A3"/>
<stop offset="0.5" stop-color="#0E92CC"/>
<stop offset="1" stop-color="#0657A3"/>
</linearGradient>
<radialGradient id="paint3_radial_111_1421" cx="0" cy="0" r="1" gradientUnits="userSpaceOnUse" gradientTransform="translate(208.432 32.1329) rotate(20.3001) scale(30.5167 30.6236)">
<stop stop-color="#A1A1A1"/>
<stop offset="1" stop-color="white"/>
</radialGradient>
<radialGradient id="paint4_radial_111_1421" cx="0" cy="0" r="1" gradientUnits="userSpaceOnUse" gradientTransform="translate(304.716 32.1329) rotate(20.3001) scale(30.5167 30.6236)">
<stop stop-color="#A1A1A1"/>
<stop offset="1" stop-color="white"/>
</radialGradient>
</defs>
</svg>
